<mxfile host="app.diagrams.net" modified="2022-02-25T11:57:27.309Z" agent="5.0 (Windows NT 10.0; Win64; x64) AppleWebKit/537.36 (KHTML, like Gecko) Chrome/98.0.4758.102 Safari/537.36" etag="lyz7rFoldYfp_JT4gAcH" version="16.6.4" type="github">
  <diagram id="LO75J4scyiAsFoYjN33i" name="Page-1">
    <mxGraphModel dx="782" dy="379" grid="1" gridSize="10" guides="1" tooltips="1" connect="1" arrows="1" fold="1" page="1" pageScale="1" pageWidth="850" pageHeight="1100" math="0" shadow="0">
      <root>
        <mxCell id="0" />
        <mxCell id="1" parent="0" />
        <mxCell id="_tG2q4p2sosxM6Sc4CJn-1" value="name, phone_number-pk, reg_date, del, status(merchant/buyer/retail), address" style="text;html=1;strokeColor=none;fillColor=none;align=center;verticalAlign=middle;whiteSpace=wrap;rounded=0;" vertex="1" parent="1">
          <mxGeometry x="10" y="330" width="580" height="30" as="geometry" />
        </mxCell>
        <mxCell id="_tG2q4p2sosxM6Sc4CJn-2" value="" style="image;html=1;image=img/lib/clip_art/people/Suit_Man_128x128.png" vertex="1" parent="1">
          <mxGeometry x="20" y="200" width="80" height="80" as="geometry" />
        </mxCell>
      </root>
    </mxGraphModel>
  </diagram>
</mxfile>
